<svg width="12" height="12" viewBox="0 0 12 12" fill="none" xmlns="http://www.w3.org/2000/svg">
<path d="M5.16663 6.83366H0.999959C0.763848 6.83366 0.565931 6.7538 0.406209 6.59408C0.246487 6.43435 0.166626 6.23644 0.166626 6.00033C0.166626 5.76421 0.246487 5.5663 0.406209 5.40658C0.565931 5.24685 0.763848 5.16699 0.999959 5.16699H5.16663V1.00033C5.16663 0.764214 5.24649 0.566298 5.40621 0.406576C5.56593 0.246853 5.76385 0.166992 5.99996 0.166992C6.23607 0.166992 6.43399 0.246853 6.59371 0.406576C6.75343 0.566298 6.83329 0.764214 6.83329 1.00033V5.16699H11C11.2361 5.16699 11.434 5.24685 11.5937 5.40658C11.7534 5.5663 11.8333 5.76421 11.8333 6.00033C11.8333 6.23644 11.7534 6.43435 11.5937 6.59408C11.434 6.7538 11.2361 6.83366 11 6.83366H6.83329V11.0003C6.83329 11.2364 6.75343 11.4344 6.59371 11.5941C6.43399 11.7538 6.23607 11.8337 5.99996 11.8337C5.76385 11.8337 5.56593 11.7538 5.40621 11.5941C5.24649 11.4344 5.16663 11.2364 5.16663 11.0003V6.83366Z" fill="#274EA1"/>
</svg>
