<svg width="17" height="18" viewBox="0 0 17 18" fill="none" xmlns="http://www.w3.org/2000/svg">
<path d="M8.49996 17.3337C7.34718 17.3337 6.26385 17.1149 5.24996 16.6774C4.23607 16.2399 3.35413 15.6462 2.60413 14.8962C1.85413 14.1462 1.26038 13.2642 0.822876 12.2503C0.385376 11.2364 0.166626 10.1531 0.166626 9.00033C0.166626 7.84755 0.385376 6.76421 0.822876 5.75033C1.26038 4.73644 1.85413 3.85449 2.60413 3.10449C3.35413 2.35449 4.23607 1.76074 5.24996 1.32324C6.26385 0.885742 7.34718 0.666992 8.49996 0.666992C9.40274 0.666992 10.2569 0.798937 11.0625 1.06283C11.868 1.32671 12.6111 1.69477 13.2916 2.16699L12.0833 3.39616C11.5555 3.06283 10.993 2.80241 10.3958 2.61491C9.79857 2.42741 9.16663 2.33366 8.49996 2.33366C6.65274 2.33366 5.07982 2.98296 3.78121 4.28158C2.4826 5.58019 1.83329 7.1531 1.83329 9.00033C1.83329 10.8475 2.4826 12.4205 3.78121 13.7191C5.07982 15.0177 6.65274 15.667 8.49996 15.667C10.3472 15.667 11.9201 15.0177 13.2187 13.7191C14.5173 12.4205 15.1666 10.8475 15.1666 9.00033C15.1666 8.75033 15.1527 8.50033 15.125 8.25033C15.0972 8.00033 15.0555 7.75727 15 7.52116L16.3541 6.16699C16.5069 6.61144 16.625 7.06977 16.7083 7.54199C16.7916 8.01422 16.8333 8.50033 16.8333 9.00033C16.8333 10.1531 16.6145 11.2364 16.177 12.2503C15.7395 13.2642 15.1458 14.1462 14.3958 14.8962C13.6458 15.6462 12.7638 16.2399 11.75 16.6774C10.7361 17.1149 9.65274 17.3337 8.49996 17.3337ZM7.33329 12.8337L3.79163 9.29199L4.95829 8.12533L7.33329 10.5003L15.6666 2.14616L16.8333 3.31283L7.33329 12.8337Z" fill="#22C55E"/>
</svg>
